<svg width="324" height="400" viewBox="0 0 324 400" fill="none" xmlns="http://www.w3.org/2000/svg">
<path d="M0.500031 399.258C2.93298 399.014 5.2157 397.69 7.62948 397.318C9.78457 396.987 11.3105 396.941 13.038 395.597C14.3039 394.613 17.1328 394.428 18.6924 394.341C20.1424 394.26 22.0349 393.062 23.3361 392.483C25.0648 391.715 27.4579 391.26 29.291 390.926C31.3374 390.554 32.8387 389.491 34.6996 388.96C38.3529 387.916 41.5394 386.317 44.7518 384.616C53.3728 380.052 61.875 373.832 68.7352 366.697C70.8207 364.528 72.2462 361.752 74.253 359.458C76.4073 356.996 78.557 354.581 80.8634 352.274C85.1992 347.939 85.8464 340.95 89.987 336.322C91.6628 334.449 92.8321 330.814 93.6746 328.455C94.7314 325.496 96.5994 322.629 97.3623 319.577C98.0751 316.726 98.7954 313.885 99.7114 311.137C100.62 308.41 101.114 305.528 102.17 302.887C103.756 298.922 102.906 293.596 104.983 289.858C105.935 288.145 105.706 285.588 106.595 283.711C107.462 281.881 107.665 278.424 108.78 276.937C109.833 275.533 110.638 272.963 110.638 271.173C110.638 270.061 111.621 269.55 111.621 268.36C111.621 267.02 112.113 265.877 112.113 264.508C112.113 260.182 114.828 256.479 115.063 252.244C115.196 249.844 117.321 247.364 118.013 245.114C118.991 241.936 120.822 238.599 122.192 235.554C124.482 230.466 127.033 225.542 128.939 220.393C129.607 218.59 131.283 219.789 131.578 218.013C131.697 217.302 132.812 212.938 133.255 212.417C134.3 211.188 137.139 208.735 138.078 207.513C139.585 205.554 137.867 203.305 138.773 200.999C139.77 198.461 141.8 196.223 142.98 193.733C145.302 188.83 148.564 184.48 150.464 179.255C151.477 176.47 152.773 173.769 153.797 171.006C154.674 168.639 154.659 166.033 155.491 163.631C160.074 150.389 169.127 139.667 177.015 128.229C179.016 125.329 181.128 122.627 182.697 119.488C184.481 115.92 188.257 113.655 191.001 110.911C193.77 108.142 196.387 105.252 199.141 102.498C201.867 99.7721 204.578 96.3628 207.992 94.4122C210.729 92.848 213.352 89.7083 215.394 87.2828C218.241 83.9018 222.233 81.3692 225.692 78.6782C232.648 73.2681 239.994 69.3148 247.818 65.4027C256.072 61.2758 264.843 58.3353 273.14 54.3671C274.716 53.6136 276.636 52.8652 278.057 51.8813C279.512 50.8739 281.598 50.1747 282.837 49.0678C285.705 46.5072 289.253 45.1104 291.961 42.4027C294.346 40.0179 297.141 38.0643 299.227 35.4098C301.25 32.8347 303.179 30.0109 305.373 27.5429C306.834 25.8986 308.183 24.2136 309.743 22.6533C310.678 21.7184 311.13 20.0045 312.229 19.2935C313.31 18.5939 313.782 16.628 314.578 15.6331C315.473 14.5151 315.305 12.4754 315.698 11.0987C316.081 9.75868 317.233 8.4333 317.61 7.11056C317.884 6.15258 319.011 4.33981 319.714 3.55949C320.514 2.6708 322.121 1.36668 322.555 0.500109" stroke="#5279F4" stroke-linecap="round" stroke-dasharray="5 5"/>
</svg>
